
<svg width="100%" height="100%" viewBox="0 0 703 539" version="1.1" xmlns="http://www.w3.org/2000/svg" xmlns:xlink="http://www.w3.org/1999/xlink">
  <!-- Generator: Sketch 49.1 (51147) - http://www.bohemiancoding.com/sketch -->
  <desc>Created with Sketch.</desc>
  <defs>
    <linearGradient x1="-123.157383%" y1="41.8989736%" x2="2380.19832%" y2="159.201026%" id="linearGradient-1">
      <stop stop-color="#00DCB3" offset="0%"></stop>
      <stop stop-color="#00D3DC" offset="100%"></stop>
    </linearGradient>
    <linearGradient x1="-59.7744076%" y1="17.5337079%" x2="445.303453%" y2="167.346442%" id="linearGradient-2">
      <stop stop-color="#00DCB3" offset="0%"></stop>
      <stop stop-color="#00D3DC" offset="100%"></stop>
    </linearGradient>
    <linearGradient x1="-148.361725%" y1="-5.41576246%" x2="314.417432%" y2="111.88629%" id="linearGradient-3">
      <stop stop-color="#00DCB3" offset="0%"></stop>
      <stop stop-color="#00D3DC" offset="100%"></stop>
    </linearGradient>
    <linearGradient x1="-296.119534%" y1="-46.2090739%" x2="247.612245%" y2="103.463517%" id="linearGradient-4">
      <stop stop-color="#00DCB3" offset="0%"></stop>
      <stop stop-color="#00D3DC" offset="100%"></stop>
    </linearGradient>
    <linearGradient x1="-326.819195%" y1="-48.7104106%" x2="120.152508%" y2="68.5916422%" id="linearGradient-5">
      <stop stop-color="#00DCB3" offset="0%"></stop>
      <stop stop-color="#00D3DC" offset="100%"></stop>
    </linearGradient>
    <linearGradient x1="-263.485299%" y1="-82.1047686%" x2="311.591761%" y2="206.143338%" id="linearGradient-6">
      <stop stop-color="#00DC9C" offset="0%"></stop>
      <stop stop-color="#00D3DC" offset="100%"></stop>
    </linearGradient>
    <linearGradient x1="-363.424556%" y1="-132.264516%" x2="211.652504%" y2="155.98359%" id="linearGradient-7">
      <stop stop-color="#00DC9C" offset="0%"></stop>
      <stop stop-color="#00D3DC" offset="100%"></stop>
    </linearGradient>
    <linearGradient x1="-316.358805%" y1="-108.636045%" x2="258.718094%" y2="179.612062%" id="linearGradient-8">
      <stop stop-color="#00DC9C" offset="0%"></stop>
      <stop stop-color="#00D3DC" offset="100%"></stop>
    </linearGradient>
    <linearGradient x1="-416.348627%" y1="-158.795792%" x2="158.728433%" y2="129.452314%" id="linearGradient-9">
      <stop stop-color="#00DC9C" offset="0%"></stop>
      <stop stop-color="#00D3DC" offset="100%"></stop>
    </linearGradient>
    <linearGradient x1="-369.69273%" y1="-135.37223%" x2="205.38433%" y2="152.875877%" id="linearGradient-10">
      <stop stop-color="#00DC9C" offset="0%"></stop>
      <stop stop-color="#00D3DC" offset="100%"></stop>
    </linearGradient>
    <linearGradient x1="-469.677383%" y1="-185.532118%" x2="105.399192%" y2="102.715989%" id="linearGradient-11">
      <stop stop-color="#00DC9C" offset="0%"></stop>
      <stop stop-color="#00D3DC" offset="100%"></stop>
    </linearGradient>
    <linearGradient x1="-107.054281%" y1="-3.74614306%" x2="468.022779%" y2="284.501964%" id="linearGradient-12">
      <stop stop-color="#00DC9C" offset="0%"></stop>
      <stop stop-color="#00D3DC" offset="100%"></stop>
    </linearGradient>
    <linearGradient x1="-203.695955%" y1="-51.9465638%" x2="372.311489%" y2="236.301403%" id="linearGradient-13">
      <stop stop-color="#00DC9C" offset="0%"></stop>
      <stop stop-color="#00D3DC" offset="100%"></stop>
    </linearGradient>
    <linearGradient x1="-223.283037%" y1="-62.0322581%" x2="351.7937%" y2="226.215708%" id="linearGradient-14">
      <stop stop-color="#00DC9C" offset="0%"></stop>
      <stop stop-color="#00D3DC" offset="100%"></stop>
    </linearGradient>
    <linearGradient x1="-297.727023%" y1="-99.0235624%" x2="278.280097%" y2="189.224544%" id="linearGradient-15">
      <stop stop-color="#00DC9C" offset="0%"></stop>
      <stop stop-color="#00D3DC" offset="100%"></stop>
    </linearGradient>
    <linearGradient x1="-434.373948%" y1="-167.415007%" x2="141.633657%" y2="120.8331%" id="linearGradient-16">
      <stop stop-color="#00DC9C" offset="0%"></stop>
      <stop stop-color="#00D3DC" offset="100%"></stop>
    </linearGradient>
    <linearGradient x1="-224.612298%" y1="-62.3900421%" x2="351.395307%" y2="225.858065%" id="linearGradient-17">
      <stop stop-color="#00DC9C" offset="0%"></stop>
      <stop stop-color="#00D3DC" offset="100%"></stop>
    </linearGradient>
    <linearGradient x1="-166.786107%" y1="-83.6619916%" x2="408.290953%" y2="204.586115%" id="linearGradient-18">
      <stop stop-color="#00DC9C" offset="0%"></stop>
      <stop stop-color="#00D3DC" offset="100%"></stop>
    </linearGradient>
    <linearGradient x1="-99.0733441%" y1="-49.7591865%" x2="476.003716%" y2="238.48878%" id="linearGradient-19">
      <stop stop-color="#00DC9C" offset="0%"></stop>
      <stop stop-color="#00D3DC" offset="100%"></stop>
    </linearGradient>
    <linearGradient x1="-205.276575%" y1="-102.952595%" x2="369.800323%" y2="185.295372%" id="linearGradient-20">
      <stop stop-color="#00DC9C" offset="0%"></stop>
      <stop stop-color="#00D3DC" offset="100%"></stop>
    </linearGradient>
    <linearGradient x1="-124.231018%" y1="-62.3559607%" x2="450.845557%" y2="225.892146%" id="linearGradient-21">
      <stop stop-color="#00DC9C" offset="0%"></stop>
      <stop stop-color="#00D3DC" offset="100%"></stop>
    </linearGradient>
    <linearGradient x1="-273.392071%" y1="-136.829173%" x2="302.615049%" y2="151.418934%" id="linearGradient-22">
      <stop stop-color="#00DC9C" offset="0%"></stop>
      <stop stop-color="#00D3DC" offset="100%"></stop>
    </linearGradient>
    <linearGradient x1="-102.245396%" y1="-51.3772791%" x2="472.831502%" y2="236.870827%" id="linearGradient-23">
      <stop stop-color="#00DC9C" offset="0%"></stop>
      <stop stop-color="#00D3DC" offset="100%"></stop>
    </linearGradient>
    <linearGradient x1="-366.676414%" y1="-183.824404%" x2="208.400162%" y2="104.423562%" id="linearGradient-24">
      <stop stop-color="#00DC9C" offset="0%"></stop>
      <stop stop-color="#00D3DC" offset="100%"></stop>
    </linearGradient>
    <linearGradient x1="-319.81357%" y1="-160.438569%" x2="255.263489%" y2="127.809397%" id="linearGradient-25">
      <stop stop-color="#00DC9C" offset="0%"></stop>
      <stop stop-color="#00D3DC" offset="100%"></stop>
    </linearGradient>
    <linearGradient x1="-419.537803%" y1="-210.35568%" x2="155.538772%" y2="77.8924264%" id="linearGradient-26">
      <stop stop-color="#00DC9C" offset="0%"></stop>
      <stop stop-color="#00D3DC" offset="100%"></stop>
    </linearGradient>
    <linearGradient x1="-372.756058%" y1="-186.969846%" x2="202.32084%" y2="101.278121%" id="linearGradient-27">
      <stop stop-color="#00DC9C" offset="0%"></stop>
      <stop stop-color="#00D3DC" offset="100%"></stop>
    </linearGradient>
    <linearGradient x1="-298.588853%" y1="-149.69425%" x2="276.488207%" y2="138.553717%" id="linearGradient-28">
      <stop stop-color="#00DC9C" offset="0%"></stop>
      <stop stop-color="#00D3DC" offset="100%"></stop>
    </linearGradient>
    <linearGradient x1="-266.474798%" y1="-133.702384%" x2="308.601777%" y2="154.545722%" id="linearGradient-29">
      <stop stop-color="#00DC9C" offset="0%"></stop>
      <stop stop-color="#00D3DC" offset="100%"></stop>
    </linearGradient>
  </defs>
  <g id="Page-1" stroke="none" stroke-width="1" fill="none" fill-rule="evenodd">
    <g id="logo_iotex_color" transform="translate(-2730.000000, -331.000000)" fill-rule="nonzero">
      <g id="Group" transform="translate(2179.000000, 331.000000)">
        <g transform="translate(551.000000, 401.000000)" id="Shape">
          <path d="M26.3,1 C29.2,1 30.6,2.4 30.6,5.3 L30.6,133 C30.6,135.9 29.2,137.3 26.3,137.3 L5.3,137.3 C2.3,137.3 0.8,135.9 0.8,133 L0.8,5.2 C0.8,2.3 2.3,0.9 5.3,0.9 L26.3,0.9 L26.3,1 Z" fill="url(#linearGradient-1)"></path>
          <path d="M155.7,30.4 C164.4,30.4 171.7,31.1 177.7,32.6 C183.7,34.1 188.4,36.4 192,39.6 C195.6,42.8 198.1,46.9 199.7,51.9 C201.3,56.9 202,62.9 202,69.9 L202,97.9 C202,104.9 201.2,110.9 199.7,115.9 C198.1,120.9 195.6,125 192,128.2 C188.4,131.4 183.6,133.7 177.7,135.1 C171.7,136.5 164.4,137.2 155.7,137.2 L100.6,137.2 C91.8,137.2 84.4,136.5 78.5,135.1 C72.6,133.7 67.8,131.4 64.3,128.2 C60.7,125 58.2,120.9 56.6,115.9 C55.1,110.9 54.3,104.9 54.3,97.9 L54.3,69.9 C54.3,62.9 55.1,56.9 56.6,51.9 C58.2,46.9 60.7,42.8 64.3,39.6 C67.9,36.4 72.6,34.1 78.5,32.6 C84.4,31.1 91.8,30.4 100.6,30.4 L155.7,30.4 Z M82,93.1 C82,97.3 82.3,100.7 83,103.4 C83.7,106.1 84.8,108.3 86.4,109.9 C88,111.5 90.2,112.7 92.9,113.4 C95.6,114.1 99.1,114.5 103.2,114.5 L152.9,114.5 C157.2,114.5 160.7,114.2 163.4,113.4 C166.1,112.6 168.3,111.5 169.9,109.9 C171.5,108.3 172.7,106.1 173.3,103.4 C174,100.7 174.3,97.2 174.3,93.1 L174.3,74.6 C174.3,70.6 174,67.2 173.3,64.5 C172.6,61.8 171.5,59.6 169.9,57.9 C168.3,56.2 166.1,55 163.4,54.4 C160.7,53.8 157.2,53.4 152.9,53.4 L103.2,53.4 C99,53.4 95.6,53.7 92.9,54.4 C90.2,55.1 88,56.2 86.4,57.9 C84.8,59.6 83.6,61.8 83,64.5 C82.3,67.2 82,70.6 82,74.6 L82,93.1 Z" fill="url(#linearGradient-2)"></path>
          <path d="M373.8,1 C376.8,1 378.3,2.4 378.3,5.3 L378.3,24.4 C378.3,27.4 376.8,28.9 373.8,28.9 L312.6,28.9 L312.6,133 C312.6,135.9 311.2,137.3 308.3,137.3 L287.1,137.3 C284.2,137.3 282.8,135.9 282.8,133 L282.8,28.8 L221.6,28.8 C218.6,28.8 217.1,27.3 217.1,24.3 L217.1,5.2 C217.1,2.3 218.6,0.9 221.6,0.9 L373.8,0.9 L373.8,1 Z" fill="url(#linearGradient-3)"></path>
          <path d="M490.3,30.4 C496.9,30.4 502.4,30.9 506.8,32 C511.2,33.1 514.6,34.9 517.1,37.5 C519.6,40 521.4,43.3 522.5,47.4 C523.5,51.5 524.1,56.5 524.1,62.3 L524.1,80.8 C524.1,85 523.2,87.8 521.4,89.5 C519.6,91.1 516.8,91.9 513,91.9 L414.6,91.9 L414.6,96.6 C414.6,102.7 416.1,107.1 419,109.8 C421.9,112.5 427.6,113.9 436,113.9 L517.2,113.9 C519.5,113.9 520.7,115.1 520.7,117.4 L520.7,133.8 C520.7,136.1 519.5,137.3 517.2,137.3 L433.2,137.3 C424.4,137.3 417,136.6 411.1,135.2 C405.2,133.8 400.5,131.5 396.9,128.3 C393.3,125.1 390.8,121 389.2,116 C387.6,111 386.9,105 386.9,98 L386.9,70 C386.9,63 387.7,57 389.2,52 C390.8,47 393.3,42.9 396.9,39.7 C400.5,36.5 405.2,34.2 411.1,32.7 C417,31.2 424.4,30.5 433.2,30.5 L490.3,30.5 L490.3,30.4 Z M414.5,74.6 L493.4,74.6 C495.6,74.6 496.7,73.5 496.7,71.3 L496.7,63.1 C496.7,59.1 495.9,56.2 494.2,54.5 C492.5,52.8 489.4,52 484.9,52 L436,52 C427.6,52 421.9,53.3 419,56 C416.1,58.7 414.6,63.1 414.6,69.3 L414.6,74.6 L414.5,74.6 Z" fill="url(#linearGradient-4)"></path>
          <path d="M697.2,1 C699,1 700,1.6 700.2,2.9 C700.4,4.1 700,5.2 699.1,6.1 L639.3,66.7 L701.8,132.3 C702.7,133.2 703.1,134.3 702.9,135.5 C702.7,136.7 701.7,137.4 699.9,137.4 L673.2,137.4 C671.6,137.4 670.4,137.2 669.5,136.8 C668.6,136.4 667.7,135.7 667,134.7 L618.9,84.3 L570.6,134.7 C569.7,135.7 568.8,136.5 568,136.8 C567.2,137.2 565.9,137.4 564.2,137.4 L538.9,137.4 C537.2,137.4 536.3,136.8 536.1,135.5 C535.9,134.3 536.3,133.2 537.2,132.3 L601.3,65.7 L543.5,6.1 C542.7,5.2 542.4,4.1 542.5,2.9 C542.6,1.7 543.6,1 545.4,1 L572.1,1 C573.7,1 574.9,1.2 575.8,1.7 C576.7,2.1 577.6,2.8 578.3,3.7 L620.8,48.9 L665.8,3.7 C666.6,2.8 667.4,2.1 668.3,1.7 C669.2,1.2 670.4,1 672,1 L697.2,1 Z" fill="url(#linearGradient-5)"></path>
        </g>
        <g transform="translate(722.000000, 0.000000)" id="Shape">
          <polygon fill="url(#linearGradient-6)" points="189.8 0.7 189.8 72 251.7 36.4"></polygon>
          <polygon fill="url(#linearGradient-7)" opacity="0.9" points="251.7 36.4 251.7 107.7 313.6 72"></polygon>
          <polygon fill="url(#linearGradient-8)" opacity="0.8" points="189.8 72 189.8 143.3 251.7 107.7"></polygon>
          <polygon fill="url(#linearGradient-9)" opacity="0.8" points="251.7 107.7 251.7 179 313.6 143.3"></polygon>
          <polygon fill="url(#linearGradient-10)" opacity="0.8" points="189.8 143.3 189.8 214.6 251.7 179"></polygon>
          <polygon fill="url(#linearGradient-11)" points="251.7 179 251.7 250.3 313.6 214.6"></polygon>
          <polygon fill="url(#linearGradient-12)" opacity="0.5" points="29.8 69.6 29.8 140.9 91.7 105.2"></polygon>
          <polygon fill="url(#linearGradient-13)" opacity="0.2" points="107.9 96.1 107.9 167.4 169.7 131.7"></polygon>
          <polygon fill="url(#linearGradient-14)" opacity="0.4" points="62 141.2 62 212.5 123.9 176.8"></polygon>
          <polygon fill="url(#linearGradient-15)" opacity="0.9" points="102.8 195 102.8 266.3 164.6 230.6"></polygon>
          <polygon fill="url(#linearGradient-16)" opacity="0.7" points="189.3 225.7 189.3 297 251.1 261.3"></polygon>
          <polygon fill="url(#linearGradient-17)" opacity="0.9" points="118.2 60.9 118.2 132.2 180 96.6"></polygon>
          <polygon fill="url(#linearGradient-18)" opacity="0.8" points="189.8 0.7 189.8 72 127.9 36.4"></polygon>
          <polygon fill="url(#linearGradient-19)" opacity="0.7" points="118.2 31 118.2 102.3 56.3 66.6"></polygon>
          <polygon fill="url(#linearGradient-20)" opacity="0.6" points="180.1 66.3 180.1 137.6 118.2 101.9"></polygon>
          <polygon fill="url(#linearGradient-21)" points="107.6 96.1 107.6 167.4 45.7 131.7"></polygon>
          <polygon fill="url(#linearGradient-22)" opacity="0.6" points="189.8 143.3 189.8 214.6 128 179"></polygon>
          <polygon fill="url(#linearGradient-23)" opacity="0.65" points="62 159.9 62 231.2 0.1 195.5"></polygon>
          <polygon fill="url(#linearGradient-24)" points="313.6 72 313.6 143.3 251.7 107.7"></polygon>
          <polygon fill="url(#linearGradient-25)" opacity="0.95" points="251.7 107.7 251.7 179 189.8 143.3"></polygon>
          <polygon fill="url(#linearGradient-26)" opacity="0.9" points="313.6 143.3 313.6 214.6 251.7 179"></polygon>
          <polygon fill="url(#linearGradient-27)" opacity="0.7" points="251.7 179 251.7 250.3 189.8 214.6"></polygon>
          <polygon fill="url(#linearGradient-28)" opacity="0.4" points="176.1 208.7 176.1 280 114.2 244.4"></polygon>
          <polygon fill="url(#linearGradient-29)" points="251.7 36.4 251.7 107.7 189.8 72"></polygon>
        </g>
      </g>
    </g>
  </g>
</svg>
